PathFileType	4	(X/Y/Z)	C:/Users/beibeiliu/ov580/test_trc\sequence.9_training_dense_right.trc
DataRate	CameraRate	NumFrames	NumMarkers	Units	OrigDataRate	OrigDataStartFrame	OrigNumFrames
120	120	18	19	mm	120	150	398
Frame#	Time	ThumbCMC			ThumbMCP			ThumbIP			ThumbTip			IndexMCP			IndexPIP			IndexTip			MiddleMCP			MiddlePIP			MiddleTip			RingMCP			RingPIP			RingTip			PinkyMCP			PinkyPIP			PinkyTip			BackHand1			BackHand2			BackHand3	
		X0	Y0	Z0	X1	Y1	Z1	X2	Y2	Z2	X3	Y3	Z3	X4	Y4	Z4	X5	Y5	Z5	X6	Y6	Z6	X7	Y7	Z7	X8	Y8	Z8	X9	Y9	Z9	X10	Y10	Z10	X11	Y11	Z11	X12	Y12	Z12	X13	Y13	Z13	X14	Y14	Z14	X15	Y15	Z15	X16	Y16	Z16	X17	Y17	Z17	X18	Y18	Z18	
149	1.24167	152.144	-56.87	-19.7273	157.137	-73.0172	-32.9704	151.524	-94.3435	-48.9698	150.489	-106.448	-59.9699	143.847	-44.0159	-86.7425	141.6	-47.3268	-106.974	135.423	-49.0819	-127.173	149.788	-24.6749	-91.515	147.708	-23.9568	-114.604	142.433	-18.1333	-139.682	160.114	-7.94304	-86.7159	159.959	-2.23005	-104.756	154.145	5.07723	-127.505	173.717	10.757	-74.6002	174.087	19.788	-86.6815	168.033	30.8296	-98.7489	153.882	-6.83738	-43.6614	151.755	-3.14978	-18.9673	141.32	-30.0902	-33.0369	
150	1.25	151.44	-57.24	-18.6055	157.108	-76.5023	-35.5131	155.76	-93.3501	-47.3057	151.827	-110.625	-55.9458	142.025	-50.4406	-84.9877	138.493	-54.4724	-105.032	132.39	-57.2968	-130.647	147.055	-25.7867	-93.3521	144.445	-24.9214	-117.003	139.464	-21.4872	-140.734	156.99	-8.59479	-84.6383	153.396	-3.41925	-108.144	150	-1.40329	-123.89	167.564	6.93557	-72.2026	167.989	15.7794	-83.4568	160.742	29.0867	-95.8434	148.712	-9.67619	-45.6144	146.204	-7.56128	-20.5774	139.247	-31.5499	-33.5593	
151	1.25833	149.411	-59.8516	-19.8977	157.441	-78.6516	-31.5122	156.771	-93.392	-49.4322	155.997	-110.332	-55.8399	141.381	-53.9192	-83.3479	139.786	-53.6532	-104.735	133.046	-57.3261	-129.812	145.014	-27.4379	-89.62	141.698	-28.3553	-113.451	136.772	-28.1733	-136.639	152.322	-6.1928	-87.6475	149.6	-3.45947	-106.754	147.792	-1.07104	-122.512	162.747	10.5148	-68.7554	160.695	16.9365	-84.4991	153.932	28.5953	-96.5279	145.142	-11.9118	-43.5561	142.71	-5.30671	-15.8336	136.798	-34.249	-31.7537	
152	1.26667	149.235	-57.2002	-18.1719	157.458	-77.4984	-29.8493	157.254	-98.9823	-47.0208	156.764	-111.871	-52.793	140.917	-52.2733	-83.4807	138.253	-57.0575	-105.427	134.215	-59.8285	-127.166	140.864	-29.1593	-94.0912	139.365	-32.4496	-114.61	135.036	-26.1352	-137.559	148.683	-9.26074	-82.9972	146.371	-8.70782	-102.25	142.708	-4.87308	-122.134	157.006	6.5055	-69.2559	154.699	19.3314	-84.4699	147.336	24.9395	-93.8132	140.238	-8.42132	-42.3681	138.107	-12.1454	-14.7008	133.918	-37.387	-28.7689	
153	1.275	146.073	-59.3027	-14.9041	155.533	-78.8407	-30.2923	157.303	-97.9743	-47.4109	160.369	-112.317	-52.335	138.473	-58.563	-84.8123	137.142	-59.657	-105.359	134.008	-61.0687	-125.887	138.736	-33.7393	-88.3811	137.361	-31.8322	-116.119	132.226	-32.4014	-139.755	142.596	-12.1248	-85.7299	141.921	-7.88025	-104.876	138.207	-2.83649	-123.046	150.878	6.72492	-69.5845	149.14	16.1719	-84.552	139.158	22.8148	-97.3941	136.259	-11.9154	-43.5366	130.839	-11.5318	-19.5261	130.571	-37.3117	-28.6723	
154	1.28333	145.223	-58.9796	-15.5064	155.164	-78.7198	-31.3421	160.24	-94.5721	-47.4371	163.136	-110.471	-56.838	138.027	-56.8333	-86.9202	136.575	-62.0859	-106.827	134.439	-62.3395	-127.129	136.378	-32.908	-90.229	135.634	-32.7419	-111.881	131.152	-33.0826	-138.979	140.09	-11.6914	-81.3671	138.937	-5.75411	-101.133	133.987	-6.71027	-121.441	147.198	7.11668	-66.8951	145.069	13.9735	-80.5959	134.644	21.8262	-90.6853	134.087	-15.9136	-40.4709	128.292	-11.0812	-16.5948	126.28	-41.4764	-29.8772	
155	1.29167	143.748	-59.2347	-13.8207	155.295	-79.5447	-30.1296	161.648	-95.4419	-47.544	167.379	-105.303	-59.4452	136.809	-57.1614	-84.4007	137.599	-60.1055	-106.976	135.177	-65.1698	-122.665	133.398	-37.2149	-90.9007	132.601	-32.88	-114.082	129.789	-33.7484	-138.478	137.61	-11.0881	-79.4451	133.953	-7.92087	-102.149	130.24	-7.10853	-123.038	141.309	5.13646	-64.4667	137.822	14.3305	-81.2034	126.567	19.6235	-92.544	128.611	-14.5771	-43.4414	124.682	-13.6453	-16.038	125.517	-41.2856	-28.008	
156	1.3	142.936	-64.1025	-14.3832	156.911	-78.1627	-26.9391	164.737	-92.5999	-44.2823	170.619	-105.733	-55.0548	136.707	-61.5252	-82.7801	136.554	-63.8386	-105.981	136.131	-66.8049	-123.133	132.185	-36.4459	-89.3252	131.915	-39.6772	-108.709	128.946	-33.5824	-137.697	132.012	-17.5819	-83.3455	130.681	-14.1433	-104.35	127.736	-11.9152	-123.101	136.642	3.40391	-64.5233	133.221	7.50267	-80.5452	119.561	16.8938	-91.6566	126.052	-19.5777	-42.8763	120.985	-19.7592	-15.0063	121.129	-44.4586	-29.0394	
157	1.30833	143.634	-67.4636	-11.3874	157.624	-82.6293	-31.4555	166.14	-96.4624	-46.9235	173.891	-106.693	-58.7845	137.405	-61.8836	-79.3826	138.16	-68.6783	-102.666	136.776	-70.863	-125.626	130.657	-41.6979	-90.7175	130.69	-38.5236	-112.866	127.532	-35.6331	-136.863	130.449	-16.564	-79.8743	128.272	-16.9104	-99.8605	124.386	-11.6762	-119.845	131.269	0.765401	-63.6508	128.312	4.40013	-79.1288	117.704	11.9262	-88.7869	121.455	-23.3122	-37.0178	114.993	-25.4256	-13.6065	122.037	-51.8077	-28.0917	
158	1.31667	144.21	-69.7024	-17.0209	159.328	-83.7509	-27.1815	169.408	-95.1978	-45.9682	178.347	-109.792	-57.3776	136.172	-64.6241	-82.4249	139.115	-70.7389	-100.584	136.709	-71.009	-124.5	128.931	-41.9795	-87.3352	128.764	-41.7297	-109.84	126.12	-37.9502	-134.659	127.056	-21.8078	-79.8833	126.328	-20.2398	-99.3946	120.916	-19.1969	-122.928	125.984	-1.94443	-62.9935	122.148	1.82514	-80.7878	111.957	10.9458	-88.0025	118.852	-27.095	-42.2111	115.091	-30.1179	-16.0011	121.797	-56.0927	-29.1887	
159	1.325	143.623	-73.1798	-12.6716	160.067	-81.6492	-30.2808	170.701	-93.5672	-43.0955	182.138	-108.197	-58.1025	136.749	-69.5207	-82.3677	138.467	-71.1605	-100.137	138.406	-76.8544	-124.633	127.233	-46.7126	-85.3082	126.322	-43.83	-113.855	124.544	-42.4286	-132.551	124.734	-27.5441	-78.5714	120.74	-23.3464	-101.065	116.775	-19.765	-118.667	122.862	-9.54791	-62.4715	116.162	0.0400009	-77.9413	106.373	2.99505	-91.475	115.314	-29.9245	-37.1995	110.496	-30.5147	-15.9129	117.722	-55.8381	-30.7416	
160	1.33333	142.992	-72.1584	-16.7927	162.618	-87.2113	-26.1378	174.202	-99.1649	-40.5922	185.329	-109.614	-53.9232	136.433	-72.9446	-80.8674	138.174	-73.5877	-100.962	137.453	-77.8482	-126.878	125.997	-52.1031	-89.2708	125.862	-51.2547	-112.571	122.668	-46.68	-131.963	119.276	-30.872	-81.6971	117.454	-28.6294	-100.627	112.196	-24.2342	-120.956	116.452	-10.4048	-63.2192	113.507	-6.69199	-76.7264	101.795	0.335322	-87.1926	112.393	-36.9835	-35.9258	106.809	-35.9533	-16.1756	118.804	-63.6287	-27.2203	
161	1.34167	143.035	-75.5666	-12.6136	163.539	-86.7554	-27.1344	176.23	-98.8275	-43.1153	185.8	-106.738	-48.3228	135.43	-73.8422	-79.7329	137.389	-73.4236	-101.953	138.87	-78.2391	-126.754	124.693	-54.9439	-88.821	123.301	-48.8333	-107.81	121.729	-52.1236	-132.176	117.304	-32.0918	-79.2618	113.934	-29.2659	-100.263	110.132	-27.0871	-116.375	113.153	-13.8363	-63.7959	107.382	-5.81412	-74.3053	95.0316	-1.75249	-85.0894	110.973	-42.6446	-39.153	103.932	-42.6446	-10.9033	116.243	-67.3153	-25.977	
162	1.35	141.316	-76.7083	-15.3796	162.21	-87.3552	-26.0651	174.213	-96.3107	-39.9227	185.724	-105.133	-47.7073	134.715	-72.4773	-78.9918	136.578	-73.261	-101.525	140.341	-80.1552	-121.124	122.265	-53.6716	-88.8511	122.484	-53.4562	-109.275	119.57	-52.4346	-136.258	115.531	-35.2622	-80.862	112.224	-32.8013	-99.3722	107.459	-29.3223	-121.304	109.104	-13.8636	-59.5017	103.745	-9.04478	-75.6396	90.4867	-4.89783	-87.0512	107.299	-40.057	-40.7705	100.112	-42.8716	-13.6905	117.477	-69.0256	-30.0245	
163	1.35833	140.585	-78.4945	-12.586	160.283	-86.1488	-29.0795	173.89	-95.043	-42.9204	185.419	-105.772	-48.5036	135.428	-76.5978	-84.5529	136.966	-75.217	-103.098	137.674	-78.1164	-127.386	121.074	-56.2166	-87.759	119.552	-50.1643	-109.914	119.562	-52.2277	-132.572	111.525	-33.618	-80.6057	107.967	-28.7947	-100.185	104.367	-26.5538	-117.631	106.746	-15.2269	-63.0984	101.428	-10.4312	-76.7831	85.4981	-7.84399	-86.1857	105.21	-44.2297	-39.2007	98.1707	-45.3969	-16.3084	114.703	-68.0569	-26.3034	
164	1.36667	137.235	-75.6512	-15.0742	158.38	-85.2673	-27.9027	172.214	-96.3919	-43.8161	182.532	-103.215	-48.5449	130.359	-72.4529	-83.2004	136.288	-76.9373	-106.553	138.085	-78.334	-124.387	119.349	-54.8775	-90.614	119.587	-52.024	-112.087	115.882	-48.9946	-136.956	109.642	-33.4287	-81.7146	106.75	-28.3198	-101.326	101.587	-26.1124	-121.636	104.078	-15.2454	-62.0677	98.1078	-6.63311	-72.8978	82.2116	-6.25088	-85.806	101.179	-42.0029	-39.9173	95.7204	-43.6507	-12.5288	112.078	-67.3678	-26.8279	
165	1.375	133.778	-75.5746	-14.694	156.692	-84.5042	-29.3242	171.407	-97.7443	-45.4033	181.713	-104.662	-52.6643	130.047	-74.1033	-82.7198	133.172	-75.4618	-107.711	136.079	-77.8905	-125.388	114.451	-49.5105	-87.735	115.473	-47.6284	-114.611	112.216	-45.3578	-137.111	106.096	-30.4803	-80.6977	105.798	-30.3677	-100.144	98.7189	-23.3295	-121.152	101.68	-15.8994	-67.1822	96.8936	-9.683	-75.5442	79.8164	-4.58237	-84.0638	99.7017	-44.0914	-37.4671	94.0849	-42.9612	-16.1326	109.259	-67.3441	-29.25	
166	1.38333	132.885	-75.8395	-20.1572	154.125	-82.8139	-32.6294	167.577	-94.49	-41.5668	177.407	-102.35	-50.6558	125.15	-70.4108	-84.7961	129.702	-72.7701	-108.411	132.972	-77.1714	-127.327	113.018	-53.017	-91.7569	114.325	-51.0642	-114.254	111.922	-48.2698	-140.038	104.288	-32.0272	-80.4688	100.758	-25.7307	-102.164	96.8165	-24.1096	-120.535	101.483	-17.7814	-62.9579	93.2431	-7.2857	-74.4979	81.8444	-6.68428	-86.5914	99.6091	-43.7523	-41.7296	93.0421	-43.7076	-17.7348	105.415	-68.5605	-30.4229	
